<svg width="202" height="22" viewBox="0 0 202 22" fill="none" xmlns="http://www.w3.org/2000/svg">
<path d="M6.13672 1.09375L11.25 15.5312L16.3359 1.09375H21.7227V21H17.6074V15.5586L18.0176 6.16602L12.6445 21H9.82812L4.46875 6.17969L4.87891 15.5586V21H0.777344V1.09375H6.13672ZM41.6562 11.498C41.6562 13.4577 41.3099 15.1758 40.6172 16.6523C39.9245 18.1289 38.931 19.2682 37.6367 20.0703C36.3516 20.8724 34.875 21.2734 33.207 21.2734C31.5573 21.2734 30.0853 20.877 28.791 20.084C27.4967 19.291 26.4941 18.1608 25.7832 16.6934C25.0723 15.2168 24.7122 13.5215 24.7031 11.6074V10.623C24.7031 8.66341 25.054 6.94076 25.7559 5.45508C26.4668 3.96029 27.4648 2.81641 28.75 2.02344C30.0443 1.22135 31.5208 0.820312 33.1797 0.820312C34.8385 0.820312 36.3105 1.22135 37.5957 2.02344C38.89 2.81641 39.888 3.96029 40.5898 5.45508C41.3008 6.94076 41.6562 8.65885 41.6562 10.6094V11.498ZM37.5 10.5957C37.5 8.50846 37.1263 6.92253 36.3789 5.83789C35.6315 4.75326 34.5651 4.21094 33.1797 4.21094C31.8034 4.21094 30.7415 4.7487 29.9941 5.82422C29.2467 6.89062 28.8685 8.45833 28.8594 10.5273V11.498C28.8594 13.5306 29.2331 15.1074 29.9805 16.2285C30.7279 17.3496 31.8034 17.9102 33.207 17.9102C34.5833 17.9102 35.6406 17.3724 36.3789 16.2969C37.1172 15.2122 37.4909 13.6354 37.5 11.5664V10.5957ZM60.9883 11.498C60.9883 13.4577 60.6419 15.1758 59.9492 16.6523C59.2565 18.1289 58.263 19.2682 56.9688 20.0703C55.6836 20.8724 54.207 21.2734 52.5391 21.2734C50.8893 21.2734 49.4173 20.877 48.123 20.084C46.8288 19.291 45.8262 18.1608 45.1152 16.6934C44.4043 15.2168 44.0443 13.5215 44.0352 11.6074V10.623C44.0352 8.66341 44.3861 6.94076 45.0879 5.45508C45.7988 3.96029 46.7969 2.81641 48.082 2.02344C49.3763 1.22135 50.8529 0.820312 52.5117 0.820312C54.1706 0.820312 55.6426 1.22135 56.9277 2.02344C58.222 2.81641 59.2201 3.96029 59.9219 5.45508C60.6328 6.94076 60.9883 8.65885 60.9883 10.6094V11.498ZM56.832 10.5957C56.832 8.50846 56.4583 6.92253 55.7109 5.83789C54.9635 4.75326 53.8971 4.21094 52.5117 4.21094C51.1354 4.21094 50.0736 4.7487 49.3262 5.82422C48.5788 6.89062 48.2005 8.45833 48.1914 10.5273V11.498C48.1914 13.5306 48.5651 15.1074 49.3125 16.2285C50.0599 17.3496 51.1354 17.9102 52.5391 17.9102C53.9154 17.9102 54.9727 17.3724 55.7109 16.2969C56.4492 15.2122 56.8229 13.6354 56.832 11.5664V10.5957ZM63.9688 21V1.09375H70.0938C71.8438 1.09375 73.4069 1.49023 74.7832 2.2832C76.1686 3.06706 77.2487 4.18815 78.0234 5.64648C78.7982 7.0957 79.1855 8.74544 79.1855 10.5957V11.5117C79.1855 13.362 78.8027 15.0072 78.0371 16.4473C77.2806 17.8874 76.2096 19.0039 74.8242 19.7969C73.4388 20.5898 71.8757 20.9909 70.1348 21H63.9688ZM68.0703 4.41602V17.7051H70.0527C71.6569 17.7051 72.8828 17.181 73.7305 16.1328C74.5781 15.0846 75.0111 13.5853 75.0293 11.6348V10.582C75.0293 8.55859 74.61 7.02734 73.7715 5.98828C72.9329 4.9401 71.707 4.41602 70.0938 4.41602H68.0703ZM88.4414 10.0625L92.584 1.09375H97.0684L90.5332 13.7812V21H86.3633V13.7812L79.8281 1.09375H84.3262L88.4414 10.0625ZM116.182 15.7773C116.182 15.0026 115.908 14.4102 115.361 14C114.814 13.5807 113.83 13.1432 112.408 12.6875C110.986 12.2227 109.861 11.7669 109.031 11.3203C106.771 10.099 105.641 8.45378 105.641 6.38477C105.641 5.30924 105.941 4.35221 106.543 3.51367C107.154 2.66602 108.024 2.00521 109.154 1.53125C110.294 1.05729 111.57 0.820312 112.982 0.820312C114.404 0.820312 115.671 1.08008 116.783 1.59961C117.895 2.11003 118.757 2.83464 119.367 3.77344C119.987 4.71224 120.297 5.77865 120.297 6.97266H116.195C116.195 6.0612 115.908 5.35482 115.334 4.85352C114.76 4.3431 113.953 4.08789 112.914 4.08789C111.911 4.08789 111.132 4.30208 110.576 4.73047C110.02 5.14974 109.742 5.70573 109.742 6.39844C109.742 7.04557 110.066 7.58789 110.713 8.02539C111.369 8.46289 112.331 8.87305 113.598 9.25586C115.931 9.95768 117.631 10.8281 118.697 11.8672C119.764 12.9062 120.297 14.2005 120.297 15.75C120.297 17.4727 119.645 18.8262 118.342 19.8105C117.038 20.7858 115.284 21.2734 113.078 21.2734C111.547 21.2734 110.152 20.9954 108.895 20.4395C107.637 19.8743 106.675 19.1042 106.01 18.1289C105.354 17.1536 105.025 16.0234 105.025 14.7383H109.141C109.141 16.9349 110.453 18.0332 113.078 18.0332C114.053 18.0332 114.814 17.8372 115.361 17.4453C115.908 17.0443 116.182 16.4883 116.182 15.7773ZM138.07 4.41602H131.973V21H127.871V4.41602H121.855V1.09375H138.07V4.41602ZM155.488 1.09375V14.2051C155.488 16.3835 154.805 18.1061 153.438 19.373C152.079 20.64 150.22 21.2734 147.859 21.2734C145.535 21.2734 143.689 20.6582 142.322 19.4277C140.955 18.1973 140.258 16.5065 140.23 14.3555V1.09375H144.332V14.2324C144.332 15.5358 144.642 16.4883 145.262 17.0898C145.891 17.6823 146.757 17.9785 147.859 17.9785C150.165 17.9785 151.337 16.7663 151.373 14.3418V1.09375H155.488ZM158.852 21V1.09375H164.977C166.727 1.09375 168.29 1.49023 169.666 2.2832C171.051 3.06706 172.132 4.18815 172.906 5.64648C173.681 7.0957 174.068 8.74544 174.068 10.5957V11.5117C174.068 13.362 173.686 15.0072 172.92 16.4473C172.163 17.8874 171.092 19.0039 169.707 19.7969C168.322 20.5898 166.758 20.9909 165.018 21H158.852ZM162.953 4.41602V17.7051H164.936C166.54 17.7051 167.766 17.181 168.613 16.1328C169.461 15.0846 169.894 13.5853 169.912 11.6348V10.582C169.912 8.55859 169.493 7.02734 168.654 5.98828C167.816 4.9401 166.59 4.41602 164.977 4.41602H162.953ZM181.424 21H177.322V1.09375H181.424V21ZM201.59 11.498C201.59 13.4577 201.243 15.1758 200.551 16.6523C199.858 18.1289 198.865 19.2682 197.57 20.0703C196.285 20.8724 194.809 21.2734 193.141 21.2734C191.491 21.2734 190.019 20.877 188.725 20.084C187.43 19.291 186.428 18.1608 185.717 16.6934C185.006 15.2168 184.646 13.5215 184.637 11.6074V10.623C184.637 8.66341 184.988 6.94076 185.689 5.45508C186.4 3.96029 187.398 2.81641 188.684 2.02344C189.978 1.22135 191.454 0.820312 193.113 0.820312C194.772 0.820312 196.244 1.22135 197.529 2.02344C198.824 2.81641 199.822 3.96029 200.523 5.45508C201.234 6.94076 201.59 8.65885 201.59 10.6094V11.498ZM197.434 10.5957C197.434 8.50846 197.06 6.92253 196.312 5.83789C195.565 4.75326 194.499 4.21094 193.113 4.21094C191.737 4.21094 190.675 4.7487 189.928 5.82422C189.18 6.89062 188.802 8.45833 188.793 10.5273V11.498C188.793 13.5306 189.167 15.1074 189.914 16.2285C190.661 17.3496 191.737 17.9102 193.141 17.9102C194.517 17.9102 195.574 17.3724 196.312 16.2969C197.051 15.2122 197.424 13.6354 197.434 11.5664V10.5957Z" fill="#323334"/>
</svg>
